<?xml version="1.0" encoding="utf-8"?>
<!-- Generator: Adobe Illustrator 27.2.0, SVG Export Plug-In . SVG Version: 6.00 Build 0)  -->
<svg version="1.1" id="OBJECTS" xmlns="http://www.w3.org/2000/svg" xmlns:xlink="http://www.w3.org/1999/xlink" x="0px" y="0px"
	 viewBox="0 0 500 500" style="enable-background:new 0 0 500 500;" xml:space="preserve">
<style type="text/css">
	.st0{clip-path:url(#SVGID_00000066477830501796002340000004549126645225026700_);}
	.st1{opacity:0.6;}
	.st2{fill:none;stroke:#0071BC;stroke-width:0.8601;stroke-miterlimit:10;}
	.st3{fill:#0071BC;}
</style>
<g>
	<defs>
		<rect id="SVGID_1_" x="24" y="113" width="452" height="274"/>
	</defs>
	<clipPath id="SVGID_00000052819131768204610520000006501315335242109319_">
		<use xlink:href="#SVGID_1_"  style="overflow:visible;"/>
	</clipPath>
	<g style="clip-path:url(#SVGID_00000052819131768204610520000006501315335242109319_);">
		<g class="st1">
			<polygon class="st2" points="409.41,173.29 271.34,196.08 159.42,269.13 103.12,421.94 170.81,597.54 315.58,671.93 
				444.93,652.5 564.9,576.09 622.54,420.6 555.51,247.69 			"/>
			<polyline class="st2" points="315.58,671.93 266.65,622.34 261.29,462.83 300.16,302.64 271.34,196.08 158.08,340.18 
				103.12,421.94 155.39,505.72 266.65,622.34 444.93,652.5 548.81,513.09 555.51,347.55 555.51,247.69 			"/>
			<polyline class="st2" points="159.42,269.13 158.08,340.18 155.39,505.72 170.81,597.54 			"/>
			<polyline class="st2" points="409.41,173.29 438.9,230.26 435.55,395.13 399.35,553.31 444.93,652.5 			"/>
			<polyline class="st2" points="270.9,196.08 439.34,230.48 555.51,247.69 			"/>
			<polyline class="st2" points="158.24,340.85 299.49,302.42 439.34,230.48 555.07,347.1 622.09,420.38 548.81,513.09 			"/>
			<polyline class="st2" points="157.74,340.85 260.62,462.83 398.68,553.31 			"/>
			<polyline class="st2" points="564.9,576.76 548.81,512.42 434.87,394.46 300.16,301.97 			"/>
			<polyline class="st2" points="555.51,348.22 435.55,395.13 260.62,462.83 154.72,506.39 			"/>
			<polyline class="st2" points="170.81,597.54 265.98,621.67 398.01,553.31 548.81,513.09 			"/>
			<g>
				<path class="st3" d="M560.49,248.09c0,2.9-2.35,5.24-5.24,5.24c-2.9,0-5.24-2.35-5.24-5.24c0-2.9,2.35-5.24,5.24-5.24
					C558.14,242.85,560.49,245.2,560.49,248.09z"/>
				<path class="st3" d="M560.76,347.55c0,2.9-2.35,5.24-5.24,5.24c-2.9,0-5.24-2.35-5.24-5.24c0-2.9,2.35-5.24,5.24-5.24
					C558.41,342.3,560.76,344.65,560.76,347.55z"/>
				<path class="st3" d="M440.79,395.13c0,2.9-2.35,5.24-5.24,5.24c-2.9,0-5.24-2.35-5.24-5.24c0-2.89,2.35-5.24,5.24-5.24
					C438.44,389.89,440.79,392.24,440.79,395.13z"/>
				<path class="st3" d="M554.05,512.42c0,2.9-2.35,5.25-5.24,5.25c-2.9,0-5.24-2.35-5.24-5.25c0-2.89,2.35-5.24,5.24-5.24
					C551.71,507.18,554.05,509.53,554.05,512.42z"/>
				<path class="st3" d="M570.14,576.09c0,2.9-2.35,5.25-5.24,5.25c-2.9,0-5.24-2.35-5.24-5.25c0-2.89,2.35-5.24,5.24-5.24
					C567.79,570.85,570.14,573.2,570.14,576.09z"/>
				<path class="st3" d="M450.17,652.16c0,2.9-2.35,5.25-5.24,5.25c-2.9,0-5.24-2.35-5.24-5.25c0-2.89,2.35-5.24,5.24-5.24
					C447.83,646.92,450.17,649.27,450.17,652.16z"/>
				<path class="st3" d="M404.6,552.63c0,2.9-2.35,5.25-5.24,5.25c-2.9,0-5.24-2.35-5.24-5.25c0-2.89,2.35-5.24,5.24-5.24
					C402.25,547.39,404.6,549.74,404.6,552.63z"/>
				<path class="st3" d="M271.89,622c0,2.9-2.35,5.25-5.24,5.25c-2.9,0-5.24-2.35-5.24-5.25c0-2.89,2.35-5.24,5.24-5.24
					C269.55,616.76,271.89,619.11,271.89,622z"/>
				<path class="st3" d="M319.48,671.6c0,2.9-2.35,5.25-5.24,5.25c-2.9,0-5.24-2.35-5.24-5.25c0-2.89,2.35-5.24,5.24-5.24
					C317.13,666.35,319.48,668.7,319.48,671.6z"/>
				<path class="st3" d="M175.05,598.21c0,2.9-2.35,5.25-5.24,5.25c-2.9,0-5.24-2.35-5.24-5.25c0-2.89,2.35-5.24,5.24-5.24
					C172.7,592.97,175.05,595.31,175.05,598.21z"/>
				<path class="st3" d="M160.64,506.05c0,2.9-2.35,5.25-5.24,5.25c-2.9,0-5.24-2.35-5.24-5.25c0-2.89,2.35-5.24,5.24-5.24
					C158.29,500.81,160.64,503.16,160.64,506.05z"/>
				<path class="st3" d="M108.36,421.94c0,2.9-2.35,5.25-5.24,5.25c-2.9,0-5.24-2.35-5.24-5.25c0-2.89,2.35-5.24,5.24-5.24
					C106.01,416.7,108.36,419.05,108.36,421.94z"/>
				<path class="st3" d="M163.65,340.84c0,2.9-2.35,5.25-5.24,5.25c-2.9,0-5.24-2.35-5.24-5.25c0-2.89,2.35-5.24,5.24-5.24
					C161.31,335.6,163.65,337.95,163.65,340.84z"/>
				<path class="st3" d="M164.32,269.13c0,2.9-2.35,5.25-5.24,5.25c-2.9,0-5.24-2.35-5.24-5.25c0-2.89,2.35-5.24,5.24-5.24
					C161.98,263.89,164.32,266.24,164.32,269.13z"/>
				<path class="st3" d="M276.59,196.08c0,2.9-2.35,5.25-5.24,5.25c-2.9,0-5.24-2.35-5.24-5.25c0-2.89,2.35-5.24,5.24-5.24
					C274.24,190.84,276.59,193.18,276.59,196.08z"/>
				<path class="st3" d="M305.4,302.31c0,2.9-2.35,5.25-5.24,5.25c-2.9,0-5.24-2.35-5.24-5.25c0-2.89,2.35-5.24,5.24-5.24
					C303.06,297.07,305.4,299.41,305.4,302.31z"/>
				<path class="st3" d="M266.53,462.71c0,2.9-2.35,5.25-5.24,5.25c-2.9,0-5.24-2.35-5.24-5.25c0-2.89,2.35-5.24,5.24-5.24
					C264.19,457.47,266.53,459.82,266.53,462.71z"/>
				<path class="st3" d="M444.88,231c0,2.9-2.35,5.24-5.24,5.24c-2.9,0-5.24-2.35-5.24-5.24c0-2.9,2.35-5.24,5.24-5.24
					C442.53,225.76,444.88,228.11,444.88,231z"/>
				<path class="st3" d="M414.65,173.29c0,2.9-2.35,5.24-5.24,5.24c-2.9,0-5.24-2.35-5.24-5.24c0-2.89,2.35-5.24,5.24-5.24
					C412.3,168.05,414.65,170.4,414.65,173.29z"/>
			</g>
		</g>
	</g>
</g>
</svg>
