<svg xmlns="http://www.w3.org/2000/svg" version="1.1" xmlns:xlink="http://www.w3.org/1999/xlink" xmlns:svgjs="http://svgjs.dev/svgjs" viewBox="0 0 800 800" opacity="0.15"><defs><linearGradient x1="50%" y1="0%" x2="50%" y2="100%" id="wwwhirl-grad"><stop stop-color="hsl(210, 100%, 59%)" stop-opacity="1" offset="45%"></stop><stop stop-color="hsl(270, 73%, 53%)" stop-opacity="1" offset="100%"></stop></linearGradient></defs><g stroke-width="2" stroke="url(#wwwhirl-grad)" fill="none" stroke-linecap="round"><path d="M-34.99999698292116 524.568188894603C-34.99999698292116 524.568188894603 44.09091430222708 339.4954564873562 44.09091430222708 339.4954564873562C44.09091430222708 339.4954564873562 123.1818255873753 459.31818708435577 123.1818255873753 459.31818708435577C123.1818255873753 459.31818708435577 202.27273687252358 269.5 202.27273687252358 269.5C202.27273687252358 269.5 281.36364815767183 440.3363683759202 281.36364815767183 440.3363683759202C281.36364815767183 440.3363683759202 360.45455944282 308.6500010861484 360.45455944282 308.6500010861484C360.45455944282 308.6500010861484 439.5454707279682 530.5000072409891 439.5454707279682 530.5000072409891C439.5454707279682 530.5000072409891 518.6363820131166 333.56363814097006 518.6363820131166 333.56363814097006C518.6363820131166 333.56363814097006 597.7272932982647 518.636370548217 597.7272932982647 518.636370548217C597.7272932982647 518.636370548217 676.818204583413 359.663638865069 676.818204583413 359.663638865069C676.818204583413 359.663638865069 755.9091158685612 452.20000506869246 755.9091158685612 452.20000506869246C755.9091158685612 452.20000506869246 835.0000271537094 306.27727374759394 835.0000271537094 306.27727374759394 " transform="rotate(130, 400, 400)"></path><path d="M-13.24999713377511 518.3397733463573C-13.24999713377511 518.3397733463573 61.886368587115726 342.52067755947274 61.886368587115726 342.52067755947274C61.886368587115726 342.52067755947274 137.02273430800653 456.3522716266224 137.02273430800653 456.3522716266224C137.02273430800653 456.3522716266224 212.1591000288974 276.0249938964844 212.1591000288974 276.0249938964844C212.1591000288974 276.0249938964844 287.29546574978826 438.31954385360854 287.29546574978826 438.31954385360854C287.29546574978826 438.31954385360854 362.431831470679 313.2174949283253 362.431831470679 313.2174949283253C362.431831470679 313.2174949283253 437.5681971915699 523.9750007754241 437.5681971915699 523.9750007754241C437.5681971915699 523.9750007754241 512.7045629124608 336.88545013040596 512.7045629124608 336.88545013040596C512.7045629124608 336.88545013040596 587.8409286333515 512.7045459172905 587.8409286333515 512.7045459172905C587.8409286333515 512.7045459172905 662.9772943542424 361.6804508182999 662.9772943542424 361.6804508182999C662.9772943542424 361.6804508182999 738.1136600751332 449.58999871174217 738.1136600751332 449.58999871174217C738.1136600751332 449.58999871174217 813.250025796024 310.9634039566986 813.250025796024 310.9634039566986 " transform="rotate(123.5, 400, 400)"></path><path d="M8.500002715370954 512.111365427506C8.500002715370954 512.111365427506 79.68182287200437 345.5459062609838 79.68182287200437 345.5459062609838C79.68182287200437 345.5459062609838 150.86364302863777 453.38636379828347 150.86364302863777 453.38636379828347C150.86364302863777 453.38636379828347 222.04546318527127 282.5499954223633 222.04546318527127 282.5499954223633C222.04546318527127 282.5499954223633 293.22728334190464 436.3027269606915 293.22728334190464 436.3027269606915C293.22728334190464 436.3027269606915 364.409103498538 317.78499639989684 364.409103498538 317.78499639989684C364.409103498538 317.78499639989684 435.5909236551714 517.4500019392535 435.5909236551714 517.4500019392535C435.5909236551714 517.4500019392535 506.77274381180496 340.20726974923633 506.77274381180496 340.20726974923633C506.77274381180496 340.20726974923633 577.9545639684383 506.77272891575853 577.9545639684383 506.77272891575853C577.9545639684383 506.77272891575853 649.1363841250718 363.6972704009254 649.1363841250718 363.6972704009254C649.1363841250718 363.6972704009254 720.3182042817052 446.97999998418646 720.3182042817052 446.97999998418646C720.3182042817052 446.97999998418646 791.5000244383385 315.6495417951978 791.5000244383385 315.6495417951978 " transform="rotate(117, 400, 400)"></path><path d="M30.250002564517004 505.8829575086548C30.250002564517004 505.8829575086548 97.47727715689302 348.57113496249497 97.47727715689302 348.57113496249497C97.47727715689302 348.57113496249497 164.704551749269 450.42045596994456 164.704551749269 450.42045596994456C164.704551749269 450.42045596994456 231.93182634164498 289.0749969482422 231.93182634164498 289.0749969482422C231.93182634164498 289.0749969482422 299.15910093402107 434.28591006777435 299.15910093402107 434.28591006777435C299.15910093402107 434.28591006777435 366.38637552639705 322.3524978714683 366.38637552639705 322.3524978714683C366.38637552639705 322.3524978714683 433.613650118773 510.925003103083 433.613650118773 510.925003103083C433.613650118773 510.925003103083 500.840924711149 343.52908936806676 500.840924711149 343.52908936806676C500.840924711149 343.52908936806676 568.068199303525 500.8409119142266 568.068199303525 500.8409119142266C568.068199303525 500.8409119142266 635.2954738959011 365.7140899835508 635.2954738959011 365.7140899835508C635.2954738959011 365.7140899835508 702.5227484882771 444.37000125663076 702.5227484882771 444.37000125663076C702.5227484882771 444.37000125663076 769.750023080653 320.33567963369705 769.750023080653 320.33567963369705 " transform="rotate(110.5, 400, 400)"></path><path d="M52.00000241366307 499.65454958980354C52.00000241366307 499.65454958980354 115.27273144178167 351.59636366400605 115.27273144178167 351.59636366400605C115.27273144178167 351.59636366400605 178.54546046990026 447.45454814160576 178.54546046990026 447.45454814160576C178.54546046990026 447.45454814160576 241.81818949801885 295.5999984741211 241.81818949801885 295.5999984741211C241.81818949801885 295.5999984741211 305.09091852613744 432.2690931748573 305.09091852613744 432.2690931748573C305.09091852613744 432.2690931748573 368.36364755425603 326.91999934303976 368.36364755425603 326.91999934303976C368.36364755425603 326.91999934303976 431.6363765823746 504.40000426691245 431.6363765823746 504.40000426691245C431.6363765823746 504.40000426691245 494.9091056104932 346.85090898689714 494.9091056104932 346.85090898689714C494.9091056104932 346.85090898689714 558.1818346386118 494.9090949126946 558.1818346386118 494.9090949126946C558.1818346386118 494.9090949126946 621.4545636667305 367.7309095661763 621.4545636667305 367.7309095661763C621.4545636667305 367.7309095661763 684.727292694849 441.76000252907505 684.727292694849 441.76000252907505C684.727292694849 441.76000252907505 748.0000217229676 325.02181747219623 748.0000217229676 325.02181747219623 " transform="rotate(104, 400, 400)"></path><path d="M73.75000226280913 493.4261416709523C73.75000226280913 493.4261416709523 133.06818572667032 354.62159236551713 133.06818572667032 354.62159236551713C133.06818572667032 354.62159236551713 192.38636919053147 444.48864031326684 192.38636919053147 444.48864031326684C192.38636919053147 444.48864031326684 251.70455265439267 302.125 251.70455265439267 302.125C251.70455265439267 302.125 311.0227361182539 430.2522762819401 311.0227361182539 430.2522762819401C311.0227361182539 430.2522762819401 370.340919582115 331.4875008146113 370.340919582115 331.4875008146113C370.340919582115 331.4875008146113 429.6591030459762 497.8750054307419 429.6591030459762 497.8750054307419C429.6591030459762 497.8750054307419 488.97728650983737 350.17272860572757 488.97728650983737 350.17272860572757C488.97728650983737 350.17272860572757 548.2954699736986 488.9772779111627 548.2954699736986 488.9772779111627C548.2954699736986 488.9772779111627 607.6136534375598 369.74772914880174 607.6136534375598 369.74772914880174C607.6136534375598 369.74772914880174 666.931836901421 439.15000380151935 666.931836901421 439.15000380151935C666.931836901421 439.15000380151935 726.2500203652821 329.7079553106954 726.2500203652821 329.7079553106954 " transform="rotate(97.5, 400, 400)"></path><path d="M95.50000211195518 487.1977261227065C95.50000211195518 487.1977261227065 150.86364001155897 357.6468134376337 150.86364001155897 357.6468134376337C150.86364001155897 357.6468134376337 206.22727791116273 441.5227248555334 206.22727791116273 441.5227248555334C206.22727791116273 441.5227248555334 261.59091581076655 308.6499938964844 261.59091581076655 308.6499938964844C261.59091581076655 308.6499938964844 316.9545537103703 428.2354517596285 316.9545537103703 428.2354517596285C316.9545537103703 428.2354517596285 372.318191609974 336.05499465678827 372.318191609974 336.05499465678827C372.318191609974 336.05499465678827 427.68182950957777 491.34999896517684 427.68182950957777 491.34999896517684C427.68182950957777 491.34999896517684 483.0454674091816 353.4945405951634 483.0454674091816 353.4945405951634C483.0454674091816 353.4945405951634 538.4091053087853 483.04545328023625 538.4091053087853 483.04545328023625C538.4091053087853 483.04545328023625 593.7727432083891 371.7645411020327 593.7727432083891 371.7645411020327C593.7727432083891 371.7645411020327 649.1363811079929 436.53999744456905 649.1363811079929 436.53999744456905C649.1363811079929 436.53999744456905 704.5000190075966 334.3940855198001 704.5000190075966 334.3940855198001 " transform="rotate(91, 400, 400)"></path><path d="M117.25000196110125 480.9693258332498C117.25000196110125 480.9693258332498 168.65909429644762 360.67204976853935 168.65909429644762 360.67204976853935C168.65909429644762 360.67204976853935 220.06818663179394 438.556824656589 220.06818663179394 438.556824656589C220.06818663179394 438.556824656589 271.47727896714036 315.1750030517578 271.47727896714036 315.1750030517578C271.47727896714036 315.1750030517578 322.88637130248674 426.21864249610593 322.88637130248674 426.21864249610593C322.88637130248674 426.21864249610593 374.295463637833 340.62250375775426 374.295463637833 340.62250375775426C374.295463637833 340.62250375775426 425.70455597317937 484.8250077584008 425.70455597317937 484.8250077584008C425.70455597317937 484.8250077584008 477.11364830852574 356.8163678433884 477.11364830852574 356.8163678433884C477.11364830852574 356.8163678433884 528.5227406438721 477.11364390809877 528.5227406438721 477.11364390809877C528.5227406438721 477.11364390809877 579.9318329792186 373.78136831405266 579.9318329792186 373.78136831405266C579.9318329792186 373.78136831405266 631.3409253145649 433.9300063464079 631.3409253145649 433.9300063464079C631.3409253145649 433.9300063464079 682.7500176499111 339.0802309876939 682.7500176499111 339.0802309876939 " transform="rotate(84.5, 400, 400)"></path><path d="M139.00000181024728 474.740910285004C139.00000181024728 474.740910285004 186.45454858133627 363.6972708406559 186.45454858133627 363.6972708406559C186.45454858133627 363.6972708406559 233.9090953524252 435.5909091988557 233.9090953524252 435.5909091988557C233.9090953524252 435.5909091988557 281.3636421235142 321.6999969482422 281.3636421235142 321.6999969482422C281.3636421235142 321.6999969482422 328.8181888946031 424.2018179737943 328.8181888946031 424.2018179737943C328.8181888946031 424.2018179737943 376.27273566569204 345.1899975999312 376.27273566569204 345.1899975999312C376.27273566569204 345.1899975999312 423.72728243678097 478.3000012928357 423.72728243678097 478.3000012928357C423.72728243678097 478.3000012928357 471.18182920786995 360.1381798328242 471.18182920786995 360.1381798328242C471.18182920786995 360.1381798328242 518.6363759789588 471.1818192771724 518.6363759789588 471.1818192771724C518.6363759789588 471.1818192771724 566.0909227500479 375.79818026728356 566.0909227500479 375.79818026728356C566.0909227500479 375.79818026728356 613.5454695211367 431.31999998945764 613.5454695211367 431.31999998945764C613.5454695211367 431.31999998945764 661.0000162922257 343.7663611967985 661.0000162922257 343.7663611967985 " transform="rotate(78, 400, 400)"></path><path d="M160.7499864006043 468.5125023661528C160.7499864006043 468.5125023661528 204.24998760743583 366.722499542167 204.24998760743583 366.722499542167C204.24998760743583 366.722499542167 247.74998881426734 432.62500137051677 247.74998881426734 432.62500137051677C247.74998881426734 432.62500137051677 291.24999002109894 328.2249984741211 291.24999002109894 328.2249984741211C291.24999002109894 328.2249984741211 334.7499912279304 422.1850010808772 334.7499912279304 422.1850010808772C334.7499912279304 422.1850010808772 378.24999243476196 349.7574990715027 378.24999243476196 349.7574990715027C378.24999243476196 349.7574990715027 421.7499936415935 471.7750024566651 421.7499936415935 471.7750024566651C421.7499936415935 471.7750024566651 465.24999484842505 363.45999945165465 465.24999484842505 363.45999945165465C465.24999484842505 363.45999945165465 508.74999605525653 465.25000227564044 508.74999605525653 465.25000227564044C508.74999605525653 465.25000227564044 552.2499972620882 377.81499984990904 552.2499972620882 377.81499984990904C552.2499972620882 377.81499984990904 595.7499984689196 428.71000126190194 595.7499984689196 428.71000126190194C595.7499984689196 428.71000126190194 639.2499996757512 348.45249903529776 639.2499996757512 348.45249903529776 " transform="rotate(71.5, 400, 400)"></path><path d="M182.49998624975035 462.2840944473015C182.49998624975035 462.2840944473015 222.04544189232448 369.7477282436781 222.04544189232448 369.7477282436781C222.04544189232448 369.7477282436781 261.5908975348986 429.65909354217786 261.5908975348986 429.65909354217786C261.5908975348986 429.65909354217786 301.13635317747276 334.75 301.13635317747276 334.75C301.13635317747276 334.75 340.68180882004685 420.1681841879601 340.68180882004685 420.1681841879601C340.68180882004685 420.1681841879601 380.22726446262095 354.3250005430742 380.22726446262095 354.3250005430742C380.22726446262095 354.3250005430742 419.77272010519505 465.25000362049457 419.77272010519505 465.25000362049457C419.77272010519505 465.25000362049457 459.31817574776926 366.781819070485 459.31817574776926 366.781819070485C459.31817574776926 366.781819070485 498.8636313903433 459.3181852741085 498.8636313903433 459.3181852741085C498.8636313903433 459.3181852741085 538.4090870329175 379.8318194325345 538.4090870329175 379.8318194325345C538.4090870329175 379.8318194325345 577.9545426754916 426.10000253434623 577.9545426754916 426.10000253434623C577.9545426754916 426.10000253434623 617.4999983180656 353.13863687379694 617.4999983180656 353.13863687379694 " transform="rotate(65, 400, 400)"></path><path d="M204.24998609889641 456.055682713753C204.24998609889641 456.055682713753 239.84089617721312 372.77295313049194 239.84089617721312 372.77295313049194C239.84089617721312 372.77295313049194 275.4318062555298 426.69318189914173 275.4318062555298 426.69318189914173C275.4318062555298 426.69318189914173 311.0227163338466 341.27499771118164 311.0227163338466 341.27499771118164C311.0227163338466 341.27499771118164 346.6136264121633 418.1513634803457 346.6136264121633 418.1513634803457C346.6136264121633 418.1513634803457 382.20453649047994 358.8924981999484 382.20453649047994 358.8924981999484C382.20453649047994 358.8924981999484 417.79544656879665 458.72500096962676 417.79544656879665 458.72500096962676C417.79544656879665 458.72500096962676 453.3863566471134 370.10363487461814 453.3863566471134 370.10363487461814C453.3863566471134 370.10363487461814 488.97726672543007 453.38636445787927 488.97726672543007 453.38636445787927C488.97726672543007 453.38636445787927 524.5681768037468 381.8486352004627 524.5681768037468 381.8486352004627C524.5681768037468 381.8486352004627 560.1590868820635 423.4899999920932 560.1590868820635 423.4899999920932C560.1590868820635 423.4899999920932 595.7499969603803 357.8247708975989 595.7499969603803 357.8247708975989 " transform="rotate(58.5, 400, 400)"></path><path d="M225.99998594804248 449.82726335081C225.99998594804248 449.82726335081 257.63635046210175 375.7981703879112 257.63635046210175 375.7981703879112C257.63635046210175 375.7981703879112 289.27271497616107 423.7272626267111 289.27271497616107 423.7272626267111C289.27271497616107 423.7272626267111 320.9090794902204 347.79998779296875 320.9090794902204 347.79998779296875C320.9090794902204 347.79998779296875 352.54544400427966 416.13453514333685 352.54544400427966 416.13453514333685C352.54544400427966 416.13453514333685 384.1818085183389 363.4599882274281 384.1818085183389 363.4599882274281C384.1818085183389 363.4599882274281 415.81817303239825 452.1999906893644 415.81817303239825 452.1999906893644C415.81817303239825 452.1999906893644 447.4545375464576 373.4254430493568 447.4545375464576 373.4254430493568C447.4545375464576 373.4254430493568 479.09090206051684 447.4545360122555 479.09090206051684 447.4545360122555C479.09090206051684 447.4545360122555 510.72726657457616 383.86544333899633 510.72726657457616 383.86544333899633C510.72726657457616 383.86544333899633 542.3636310886354 420.87998982044576 542.3636310886354 420.87998982044576C542.3636310886354 420.87998982044576 573.9999956026948 362.51089729200635 573.9999956026948 362.51089729200635 " transform="rotate(52, 400, 400)"></path><path d="M247.74998579718851 443.59886306135326C247.74998579718851 443.59886306135326 275.43180474699045 378.82340671881684 275.43180474699045 378.82340671881684C275.43180474699045 378.82340671881684 303.1136236967923 420.7613624277667 303.1136236967923 420.7613624277667C303.1136236967923 420.7613624277667 330.7954426465942 354.3249969482422 330.7954426465942 354.3249969482422C330.7954426465942 354.3249969482422 358.4772615963961 414.11772587981426 358.4772615963961 414.11772587981426C358.4772615963961 414.11772587981426 386.15908054619797 368.02749732839413 386.15908054619797 368.02749732839413C386.15908054619797 368.02749732839413 413.8408994959998 445.6749994825884 413.8408994959998 445.6749994825884C413.8408994959998 445.6749994825884 441.52271844580173 376.74727029758174 441.52271844580173 376.74727029758174C441.52271844580173 376.74727029758174 469.2045373956036 441.5227266401181 469.2045373956036 441.5227266401181C469.2045373956036 441.5227266401181 496.8863563454055 385.88227055101635 496.8863563454055 385.88227055101635C496.8863563454055 385.88227055101635 524.5681752952073 418.2699987222845 524.5681752952073 418.2699987222845C524.5681752952073 418.2699987222845 552.2499942450092 367.19704275990006 552.2499942450092 367.19704275990006 " transform="rotate(45.5, 400, 400)"></path><path d="M269.4999856463346 437.370455142502C269.4999856463346 437.370455142502 293.22725903187904 381.8486354203279 293.22725903187904 381.8486354203279C293.22725903187904 381.8486354203279 316.95453241742354 417.79545459942784 316.95453241742354 417.79545459942784C316.95453241742354 417.79545459942784 340.68180580296803 360.8499984741211 340.68180580296803 360.8499984741211C340.68180580296803 360.8499984741211 364.40907918851246 412.10090898689714 364.40907918851246 412.10090898689714C364.40907918851246 412.10090898689714 388.13635257405696 372.5949987999656 388.13635257405696 372.5949987999656C388.13635257405696 372.5949987999656 411.86362595960145 439.1500006464179 411.86362595960145 439.1500006464179C411.86362595960145 439.1500006464179 435.5908993451459 380.0690899164121 435.5908993451459 380.0690899164121C435.5908993451459 380.0690899164121 459.3181727306903 435.5909096385862 459.3181727306903 435.5909096385862C459.3181727306903 435.5909096385862 483.04544611623487 387.8990901336418 483.04544611623487 387.8990901336418C483.04544611623487 387.8990901336418 506.7727195017793 415.6599999947288 506.7727195017793 415.6599999947288C506.7727195017793 415.6599999947288 530.4999928873237 371.8831805983993 530.4999928873237 371.8831805983993 " transform="rotate(39, 400, 400)"></path><path d="M291.2500007542697 431.14204722365076C291.2500007542697 431.14204722365076 311.02272857555676 384.87386412183906 311.02272857555676 384.87386412183906C311.02272857555676 384.87386412183906 330.79545639684386 414.8295467710889 330.79545639684386 414.8295467710889C330.79545639684386 414.8295467710889 350.5681842181309 367.375 350.5681842181309 367.375C350.5681842181309 367.375 370.34091203941796 410.0840920939801 370.34091203941796 410.0840920939801C370.34091203941796 410.0840920939801 390.113639860705 377.1625002715371 390.113639860705 377.1625002715371C390.113639860705 377.1625002715371 409.88636768199206 432.6250018102473 409.88636768199206 432.6250018102473C409.88636768199206 432.6250018102473 429.65909550327916 383.3909095352425 429.65909550327916 383.3909095352425C429.65909550327916 383.3909095352425 449.43182332456615 429.65909263705424 449.43182332456615 429.65909263705424C449.43182332456615 429.65909263705424 469.20455114585326 389.91590971626727 469.20455114585326 389.91590971626727C469.20455114585326 389.91590971626727 488.9772789671403 413.0500012671731 488.9772789671403 413.0500012671731C488.9772789671403 413.0500012671731 508.75000678842736 376.56931843689847 508.75000678842736 376.56931843689847 " transform="rotate(32.5, 400, 400)"></path><path d="M313.00000060341574 424.9136373974509C313.00000060341574 424.9136373974509 328.8181828604454 387.8990909160015 328.8181828604454 387.8990909160015C328.8181828604454 387.8990909160015 344.63636511747507 411.86363703540144 344.63636511747507 411.86363703540144C344.63636511747507 411.86363703540144 360.4545473745047 373.8999996185303 360.4545473745047 373.8999996185303C360.4545473745047 373.8999996185303 376.2727296315344 408.0672732937143 376.2727296315344 408.0672732937143C376.2727296315344 408.0672732937143 392.090911888564 381.72999983575994 392.090911888564 381.72999983575994C392.090911888564 381.72999983575994 407.90909414559366 426.1000010667281 407.90909414559366 426.1000010667281C407.90909414559366 426.1000010667281 423.7272764026233 386.7127272467243 423.7272764026233 386.7127272467243C423.7272764026233 386.7127272467243 439.5454586596529 423.72727372817366 439.5454586596529 423.72727372817366C439.5454586596529 423.72727372817366 455.3636409166826 391.93272739154406 455.3636409166826 391.93272739154406C455.3636409166826 391.93272739154406 471.18182317371225 410.4400006322688 471.18182317371225 410.4400006322688C471.18182317371225 410.4400006322688 487.0000054307419 381.2554543680491 487.0000054307419 381.2554543680491 " transform="rotate(26, 400, 400)"></path><path d="M334.75000045256184 418.685227571251C334.75000045256184 418.685227571251 346.61363714533405 390.92431771016396 346.61363714533405 390.92431771016396C346.61363714533405 390.92431771016396 358.47727383810627 408.8977272997139 358.47727383810627 408.8977272997139C358.47727383810627 408.8977272997139 370.34091053087855 380.42499923706055 370.34091053087855 380.42499923706055C370.34091053087855 380.42499923706055 382.20454722365076 406.05045449344857 382.20454722365076 406.05045449344857C382.20454722365076 406.05045449344857 394.068183916423 386.2974993999828 394.068183916423 386.2974993999828C394.068183916423 386.2974993999828 405.93182060919526 419.57500032320894 405.93182060919526 419.57500032320894C405.93182060919526 419.57500032320894 417.7954573019675 390.0345449582061 417.7954573019675 390.0345449582061C417.7954573019675 390.0345449582061 429.6590939947397 417.79545481929307 429.6590939947397 417.79545481929307C429.6590939947397 417.79545481929307 441.52273068751197 393.94954506682086 441.52273068751197 393.94954506682086C441.52273068751197 393.94954506682086 453.3863673802842 407.82999999736444 453.3863673802842 407.82999999736444C453.3863673802842 407.82999999736444 465.2500040730564 385.9415902991996 465.2500040730564 385.9415902991996 " transform="rotate(19.5, 400, 400)"></path><path d="M356.4999964870106 412.45681965239976C356.4999964870106 412.45681965239976 364.40908761552544 393.9495464116751 364.40908761552544 393.9495464116751C364.40908761552544 393.9495464116751 372.31817874404027 405.93181947137504 372.31817874404027 405.93181947137504C372.31817874404027 405.93181947137504 380.2272698725551 386.95000076293945 380.2272698725551 386.95000076293945C380.2272698725551 386.95000076293945 388.13636100106993 404.0336376005315 388.13636100106993 404.0336376005315C388.13636100106993 404.0336376005315 396.04545212958476 390.8650008715543 396.04545212958476 390.8650008715543C396.04545212958476 390.8650008715543 403.95454325809953 413.05000148703834 403.95454325809953 413.05000148703834C403.95454325809953 413.05000148703834 411.8636343866144 393.35636457703646 411.8636343866144 393.35636457703646C411.8636343866144 393.35636457703646 419.7727255151292 411.8636378177612 419.7727255151292 411.8636378177612C419.7727255151292 411.8636378177612 427.681816643644 395.96636464944635 427.681816643644 395.96636464944635C427.681816643644 395.96636464944635 435.59090777215886 405.2200012698087 435.59090777215886 405.2200012698087C435.59090777215886 405.2200012698087 443.4999989006737 390.62772813769885 443.4999989006737 390.62772813769885 " transform="rotate(13, 400, 400)"></path><path d="M378.2500001508539 406.22840791885125C378.2500001508539 406.22840791885125 382.20454571511135 396.9747712984889 382.20454571511135 396.9747712984889C382.20454571511135 396.9747712984889 386.1590912793688 402.9659078283389 386.1590912793688 402.9659078283389C386.1590912793688 402.9659078283389 390.1136368436262 393.4749984741211 390.1136368436262 393.4749984741211C390.1136368436262 393.4749984741211 394.06818240788357 402.0168168929171 394.06818240788357 402.0168168929171C394.06818240788357 402.0168168929171 398.022727972141 395.4324985284285 398.022727972141 395.4324985284285C398.022727972141 395.4324985284285 401.9772735363984 406.52499883617054 401.9772735363984 406.52499883617054C401.9772735363984 406.52499883617054 405.93181910065584 396.67818038116957 405.93181910065584 396.67818038116957C405.93181910065584 396.67818038116957 409.88636466491323 405.93181700153195 409.88636466491323 405.93181700153195C409.88636466491323 405.93181700153195 413.8409102291706 397.98318041737457 413.8409102291706 397.98318041737457C413.8409102291706 397.98318041737457 417.79545579342806 402.6099987275557 417.79545579342806 402.6099987275557C417.79545579342806 402.6099987275557 421.7500013576855 395.31386216150077 421.7500013576855 395.31386216150077 " transform="rotate(6.5, 400, 400)"></path></g></svg>